<mxfile host="app.diagrams.net" modified="2022-05-11T07:03:19.933Z" agent="5.0 (X11; Linux x86_64) AppleWebKit/537.36 (KHTML, like Gecko) Chrome/100.0.4896.127 Safari/537.36" etag="7yzjM2KIChEvp9BM4TPQ" version="17.0.0" type="github">
  <diagram id="zLs9hqhy9PYRdofwC9XA" name="Page-1">
    <mxGraphModel dx="816" dy="461" grid="1" gridSize="10" guides="1" tooltips="1" connect="1" arrows="1" fold="1" page="1" pageScale="1" pageWidth="850" pageHeight="1100" math="0" shadow="0">
      <root>
        <mxCell id="0" />
        <mxCell id="1" parent="0" />
        <mxCell id="ei2TfD9Zd-2lZQAxg7M8-1" value="" style="html=1;verticalLabelPosition=bottom;align=center;labelBackgroundColor=#ffffff;verticalAlign=top;strokeWidth=2;strokeColor=#0080F0;shadow=0;dashed=0;shape=mxgraph.ios7.icons.user;" vertex="1" parent="1">
          <mxGeometry x="30" y="280" width="100" height="110" as="geometry" />
        </mxCell>
        <mxCell id="ei2TfD9Zd-2lZQAxg7M8-2" value="" style="sketch=0;html=1;dashed=0;whitespace=wrap;fillColor=#2875E2;strokeColor=#ffffff;points=[[0.005,0.63,0],[0.1,0.2,0],[0.9,0.2,0],[0.5,0,0],[0.995,0.63,0],[0.72,0.99,0],[0.5,1,0],[0.28,0.99,0]];shape=mxgraph.kubernetes.icon;prIcon=api" vertex="1" parent="1">
          <mxGeometry x="400" y="180" width="130" height="90" as="geometry" />
        </mxCell>
        <mxCell id="ei2TfD9Zd-2lZQAxg7M8-5" value="" style="shape=image;html=1;verticalAlign=top;verticalLabelPosition=bottom;labelBackgroundColor=#ffffff;imageAspect=0;aspect=fixed;image=https://cdn0.iconfinder.com/data/icons/logos-brands/24/logo_brand_brands_logos_maps_google-128.png" vertex="1" parent="1">
          <mxGeometry x="700" y="40" width="128" height="128" as="geometry" />
        </mxCell>
        <mxCell id="ei2TfD9Zd-2lZQAxg7M8-7" value="" style="shape=image;verticalLabelPosition=bottom;labelBackgroundColor=default;verticalAlign=top;aspect=fixed;imageAspect=0;image=data:image/png,iVBORw0KGgoAAAANSUhEUgAAAlEAAABVCAMAAABerEHTAAAA6lBMVEX///8AZNLsHCQAX9EAXdAAYtFhluD5/P4AXNB7q+YAWM/0+f7g6/m60vHb6PjP4/fF2vQOatMAaNTP3/Umdtfl7/pgkd6BqOQAV8+91vLqAACnwux2puTs9PyFr+aqyO4te9hPkt/sDhgAUc4+gtpuoeOjxO2Qt+mZvOrrAAzrCBRSjd0ATs2av+wvc9b9vrz7xsb80dHn+f/qMjoAQstDiNz/8O1klN7s7vb/3tz1kJDtV13zdXg5etj8vrzqIyvqOED4sbH/5eTxhIf0naD2p6n8zs7vaGzsRkz17vGu0/bxfIDtYGXrTlSO8++2AAAUWElEQVR4nO1de3+ayBqWDAMjKALRRG0Uk4iamNir2bbbbNNsd0+bnv3+X+fgBZj3nRkutjHZ3+H5L4YBZnh4571Tq1WoUKFChQoVKlSoUOFfjE5rRzhPfecVniE60xElu2Jx3Hrq+6/wzBAsLEJ3BrHI1HzqKVR4TphZRPsp0K5hP/UkKjwfNBn9OUJFlDofPvUsKjwb2IuflFBrShH3qedR4blgYv08oTSNhZUqVWEN+zf9VzCKeoOnnkmF54HO4qe1qDWjrGrbq7BGw8tmFCW0COWo1XzqmVR4HshmFO3Shd8tsC/SbsWoCmtkMkr3ps77TnOZ71+oGFVhiyxGsYXz4ePvn16aw+5zZpTdOewFEXqtTnGDc+C4zWBSclCFAshgVESoV2/7Z5f9j7VRns9KyajBSZ3DSQf+157WAU6C+Lbgzw3l/Q+Ck/mt52uRtud7t/OwWcDmNFtTY7xYDdL81aCTpszlP6grMbzudQpECYTZTVTkHQzBcRIrJziRn8iB64vuCp43+n8v/65/FmpGsdvGq7Ozgwj9P3p5qpSSUc65zuH8EP53yPj/6tYizmQ4pPx/mMKQHDRPNUvnYpJEZ5oRZJOqMRsxxscxiW55oSs87Aa8Nx4sOoFnvMhLu3AJPAXzVG+GswDTHXWEI066/DodJXfbA+vbRRcILbi+bfHEvxxKRrFF49XnNaEOLj45m6OozizGrNVDLMwoxh9mwTQFVwfnoVpykkOf8r9LGWVPxppwIyvjdHmdMeHprTgmmphnYH40Mo3ciIikXVfLzhUMLNnJRHGk0wbX0k+EI475d5oYCaNcfn2pDhmDAmzU24eLR8Uodtt5dbkh1MHl729WXitmefPhpNlrzsKxbsFhOzGqATdTSmbJvyCjqGQlzGabyZ85JdZYpdW5Y0s+X6rTKdwyshm1HsO06wwlzPbxCchYcShiFNWF+9+FUS3oa6QkwGd9DCgYxRadWEJFu97HVnSz1njS2K65OXBDBvi/E6PQO6yfpo8nl1F26GfodoQOpXqO66kHURKCMfmMWt1ZqF7agImHK1LJEKM0OsY79y6MmsPJsox7/YWQM8q6ffNHLKEOzu7upxYbIxXICfkkmF0YdQ0jipTXHvIYdTjK9mhQNpLsSE1BaoAxOkjKKcKo6DrKgKYtbHrRSzNVrBJilPj0d2DUEK4vme8n5UjKKOZ1Xh0khDp77bDzqaDumi/8dJY7MArLZJ+3Q3IY1ctPmNBH6BWIFPmc+IDG+KScQoyKJJtKaRNYEoEs5VaDcKww5fKMcj2kRO0p1VbGKGv85uVFQqi3r1ueJuVL5zZ5C8ozaoCVKKC1ZjOqWeRhEzzKNHItVsLNohijojEK+2kqbHpKG0PCPjKGpy3NqA7c4Cndl8NQwijmvQESqrE4V9gIzm08n/KMGsIFhztONqMOi0W3yQiab73MPW8zZJneRUFGaUyxk41lw3W5LiORZ6QOjijLKDNkWad7RIiMiiTUF05CfWj5iherttpHti9CaUYF8Hnh7SCLUU6Geg1XsQ1OOsciioqcYamkLMooKvEeRXCleWdUkyozEkahbI6yjJpBH4l+tLfIgMAoK5JQZwmhDl47XjfDixHbM2UZNUDmMkVKTwajTInGqwDj/Tq2huwp5i807Esgp+nKQEbFxUICDelCUNhWkG16qxWQrpNU5wKadElGOViJ2l8RHGaUtYwk1AGQUNIFi3GymVFJRtlQXlANe0oyGDWVvPwb57fkZ+68D8i0HDdN026ivYlbesgoujyar7Fs4wvpLyTz7ozkEo4jA79KEkbB96EcowZjqET5e4y6IkatJNQFkFAolW7gusAsdzZWfElGzeBTsQQTXM2ojrBNE8a89njc9pjgUSCj9D0fQhJ7mxfFGSNhmcwDMCoSoqa9xsAJ0K7LZGUbKkcFbcv87FJGUcJZZ+UYNYR32N1nYQlkFJBQl5GE0nwgoQ6X3aurc+8FJ4+N9atfjlEu3OTJUnhvlYwyT9CeR8ly6qzvx25Nx1h+WKnaHAJGEWP7cxNpsInfHjOKWzMof3SZ0qu0K/WZ5GgpoyJ7L9UDSzEqgK9WMte9ADCKLTgJdfk5klA6kFCB1Q2Dh+niijPMNrGjUozCMtkT91Uloxxk5xGf95R1pihox6nNIbhoYnSZKFidiEs1oyIRC04lkQADpV0pjcTIGaWR9H0ow6gOPBtp77WTAM8oFkmoM16HQhJqenXUuH/58oM5PU+ntElUL8MoEz5bSRArg1F1KFIoXi23jdwwifEGr5qq4PUTgEkBRrlAyZe5D2CFkc//wSSeRgWjaHpsCUbZp2gJ9lsCwDEKS6iWB6vwJlfjwcvP/f7ln7WTq4QF9jp6VIZRATJsxUB7BqOQo120s+DTjiymePFDpEflrXMGo1r8NajE/QvsUboIeUrJCKhgFGfvlWDUFE6UKvxlj4WUUfptnoQyBl/768jxnwNtnvy+dlWWYFQLqtbkSOahUTGqidgoueo1tNG0WBM+gZoNXeTYPxmM6gFGSXRtEGEiR2DKYhRYzSiNxDtqcUYhR+7eKykTRlG99ToJDq+Ucg/6iK7fLe2/Nlr72eeb0E94MCvHKBPJZF+aY6RiFDRiyFIy1F6CY1gcd5shBxHVspvKZDAK3AWRNH0AYsKa1fhbggHM7SqpGEW17a5emFFISUVe3j0gYZR1fX93ppZQw5WEis3Asw9DK9F41ykERRl1GDuwkuWVj1MwagASNBSDH8AVEkPHwX4sSnxDmg+8XRnIKE5fC8DN6eL2afLGIPUdyDBJJEbJqGTfK8woA66v3P36mIgZRZb2p5gwl3eRhPKRhJrbf/XjPfHg/oQm1J+VYFTXQWqOpdjkFYyCKy/bPyLYHjwoJo3oc6REXw5bil0BMarpbDqwHQYh1MtPxaGH/KRXvhEHbJOeQGM1o+I0xIKMGiAltavKGn08bBlF2cPf/URC3beoD3aEtYS6jPl08eO9l9rAZfQohnzU0m1rBQWjXKAjkGP5YBCmSb3gE1mgjhBvPHNkpEI+c9/bwKfgmZGxZNcGKtuKEnAntoRcSjWj1iKuVpRRWg85DvaTZAewZZQ+Mv9zmUgo14cuotm7uZlKqItvN9fvkqwg+6iEraehFJaRylOiYFQT6giK1KQZ3BqTLXMpDQhSyvywKXIKx/VigB/1hWQGIAKz8bbNoOaFr4azgvm/9PXRhRil+SOkZ+6hUgFjyyhr+OFzHHq5bxEkoc6NwcdEQl3+c99jaapAKX8U3PIyegQpGHUN3kiiqBVqKpStlqRmYXsmbTzBW1GBPHNCDZldEfDT3LgvoLUnuBwBo6h3Co6mq32vGKPQ+mpP0SR1wyjKWls77uDsj5aP3AZQQv1z43YX6UJuIipFGQUnrPaUKBgFYnNAW+bhQndRusdMNBVJKLGWaAb5jPKWgVQHAxGYjfvJBCaFEImBjPJ7R2Ceq32vIKPAnPz9K1G1hFH++08bIXT5qTa2oJUXSaiviaPq8ttNj/KiPiwT14MzzogOKBhVh4xSyHRUmsVpLUFGuQPRQnC+fEaF8vvvQEJvxD1IbiFjxETIKM0Fmvx639uFUeMn2PNiRpHx+28b0vS/9N4B0TF9Z5hfeQnV4yVUrUPK5B6gZ6iOYBZjlKJcTs2ompvRw4HqY36zL7DreYbMo3UtI08D2BQ4EoNlFEyYW+Wy78AojciiEY+OLaOM79taqv79UOenK0ooApTRbcHFToyiTCmWVbse0KNUtUrKXS+CPVyotKloGW65qRXI4aS6NxT2PbjBxcFeE5gFOLgsMAomkNFFY7gDo6QR00fHhlF6+D0WQt/DBScsh+8Mm5NQv980u7e8ZOhtl30nzTx6yVV1+ApGvYDuO8U1VZr5Bp3hSKyJjp805+EqVl1lhVijBzUoaV7FC3BTyJMmMKqG971jhbGYpZlHTHyCVvOpjDrYyqg6ZyFMgR9qJaEYkFBme/vqFGUUTplsK3zWKu8B9LbIUo1Wdw39UYJBOZjMfSInFZfrpPIe4GRhvHWDq6elECDUh2kuMqqG8nIWYOJK7wFaX2UR8yNiy6jl+7tYj3q4SraJ4bvQzJJQthG3ASoahXGFOle5x1rBqEPgDieKwWCDoTKPUa11Pfdkkorz7CJGtUdbtH0wjlqQ1zZwzaeJBsjag65HCaPsI5hCwP+h9nC2UGDA2lsJTIKtree93zo4L37YZNul1RxeGXbqh7oQJBQXQyochTlELhNFroWCUQ0YhZFXocBsN7qUi0HbmS4ljTiSYD+OwriDzhZOHYZ5oMkKHzHn4JiAf8BIjIRRNSdD31NHYVApI/X30uuAR+yPcpIw8N+9brtp10zHiCTUR15CPUAJZYbn6Z0Xzj1AZT9U3slHwaiNgz79XarZz0BIWFEht7nKUCh2p6NYw8nIPYCiElaUgzQs6g0TnMAkE3DrMkbhfY9DVqS4jpJ29u7ljH3m13/HUb1vtQf9/Pa3JT2v21ws7+6m14U1OnyNYXFG4XYAuHh2g2LZLHQkGdoZZzw64eA6St9Nw4AZjEI2p8ZtvigjV0u/yIR+B+qXlFGDucp5ViKbRdPne05nieN649rvZ7HL6fWb6/liXG/d/Egl1H9vHs7Bs7c5CVWGUcKa63OJNqRilAuFuiwfEmbWUT9nQVECYFoMk8UoWA5ncRZrUMRCXJ0QtCGQMkptbWZm3KFSvUwh/RiIcw9I60tMn8vPXz/YbwY3X/5JJdTbmtv1gDCBVdClsoLRTsMkAd+iWcGecFmUzpEsvunA7wImREMpCXos07IYBQtYOV4XL08FYW45o3AlvzgpeVYwKkwk+/VKxflRzDBTAvX7n+/e9vtnnIQKkIQyzuFtl6mFQdVkskRtJaOmSE0gMLRmIuUjPbc9Pu9yOE+MoIFil8xiFJSzempzNpQ1MBggEqNglKxh0Hpsdi1MiNZ3L63tEsSMoqz3KmHQqoEG90f/ruZeaVBCoYTIctVVqFEsFTNXC1dXUT/kBjsh2ihSRRv1P0v1GBuqK0kjuCxG9WCOVJoXrKhNl4ASTilVMKrWkseMchjVwBVoYj3kIyLJCib+my9pkiaPi/8IEuoISqiSjMK6i6afYgtfXVM8Ra8t1cnppOVEOJzNdR09AU4vl9cUC3mhSd5FBqNgSIV7wKa0IYscfA2QilG4+Fq4oLwCFGmbkprtR0RaCxPte3/KKNX/VutdQf0WS6iyjBJcCARr2GWq1CkhXjuCJ/rB+Sr1JlIv4qcCrXqaxKAQozi/SQu3e0x0X7fwpgfEp5pRttTey61Sr2O9Yo9eKa5er3tkfkmqYVIJ9aM2wRJKbJhfklFmiNQhHNPM6KQRyFzdik4avAaBG63qo8BpNJqnqt6CyNJanm4xH+FvprLYa27Wi+rlGozEKBlVc2QczWUU6lQSUWp/BQx8TbFlvHl11wec6l98rV2fg0+dmYasOUrJbj/4k1kEub8zGGXntqpLLwfSObCaS+mi3dbQj6m0VHT7kQQEE++BXWLTWyWbpH3ulYyS2nsFuv0gIqraNT4CQN8Dy+uZX79dbgXV2dnF2z/vO3Po2LTnsk96lO5IhnuX6PPCPe6wD08JAj1dLt4vJYJN2e0nA6mHE3flEFrrQ/9smuSRwSiZvVegI1mA0hD0valSsDcLoWHj5tWPu7N+v3/x9r9f7u3rBQPRXFPUodZzKd01sY7OA9voZndNLNbkTkftgvP7cIKISmFGpWPgBcj0BUIAN3uWaDcZjKq1xH2vSNdEWLeH+5w+IlD/KMrI/KEx+H7/4cP3Qcc98bpUs7h7kUuoXRiF7CXklcru7OoW+bYyEarH1Q1Tkitxn7ko3DUxSUKC3mpZ5RhcDZKU+mcxqjYTXoQinV0HKAshrQl6ZAhdE6lleWNjOB2GywVZ66Aco6Q61HpU+e7Th+jKoH9ATvdp18tt+8vE7tO5IRLwVYKijLKG8tMTWRsw8JjTSEwmo0R7r1D3aaxXEHm97C+HpFfw6pMnjDE9/vonS+7fnqs+k71Lh/wAsYJXpfI65Dtzda7HZog0QJpNqU0dU7IyxRiVtg1CiRHSvCwU6Y53+kxGCe67gh3ysbdV309jsryvymqcvLRVEmo3RqESfdCAK/crHoO6IgtzPYCwmTwrauJnjQKqXMFvLpym6jXc9KSURimD8TuUzSih9WgxRpljHLHaiypVgFGavlj3BugslYTa8UtDyGjjmmDmf2mo5i6x5Z8sODWUOkNLaKyYrHcbTqFI5QLx6qnVAmWCLi14Rq1AyHZnzmEUlH5FGSV+beZJv10FZ6AZQTBcqAm169fQUNiKJnVbBRhVs4Mx0wXzn+psLi/M3GDwom0JX/OmkUVyjBT5HEbR1ZUAc6EqzOSZbrDnUByJyWGU0HOr4NfQAmRGkdEeVKlCjFp9WE9nWfaVmlFdwgF/sbGuEwAr3ioOKfcfXVXNbveM9qoGgcYPmRC/HfZyPC+DYL6gOj9K99snQtVIQ0c3x2HlWfJGJ4f8lXrgeKaoGWiB9dAXm/k6C366VKwQmjGwTGm/execr4uyF0MwLBoo6XX1q1GMUfmUUzGqc2pwmKMX164bEPPtaRz4szqztdEcGiONreGPjGGzSB2t6QTHp+3tKK1tHPckowaGGuHxMGih930CD1HpLCE8bEPkTij5EdwxWKijacKoFljfU3RP6LzRAY+fKzW4LRGKymCUQshHawGQ/V/uiOxh8Bz2YTC5vp4ELbuEX9gcuJtR7kAxSry3zBvKPyLjsN3PvuP6PiKOC2f0ZIHc7ufjbRWeP5oZ+nZxWPvs6l/heUPptSwBsiiivlT4/0BkZ/w0oeRfZKrwfwqnrfi+eEFQts8UwQr/AnRCYjEhl6cgmPhR7AoVWjPjaEf8drzfz45U+Jdg+/W4HfDUd16hQoUKFSpUqFChQoUKFSpUKIX/AZLnx525drEVAAAAAElFTkSuQmCC;" vertex="1" parent="1">
          <mxGeometry x="370" y="456.92" width="230.75" height="33.08" as="geometry" />
        </mxCell>
        <mxCell id="ei2TfD9Zd-2lZQAxg7M8-8" value="" style="shape=image;verticalLabelPosition=bottom;labelBackgroundColor=default;verticalAlign=top;aspect=fixed;imageAspect=0;image=https://kiosbank.id/media/logo-produk/logo-biller-kiosbank-39e.svg;" vertex="1" parent="1">
          <mxGeometry x="719" y="270" width="90" height="90" as="geometry" />
        </mxCell>
        <mxCell id="ei2TfD9Zd-2lZQAxg7M8-9" value="" style="shape=image;verticalLabelPosition=bottom;labelBackgroundColor=default;verticalAlign=top;aspect=fixed;imageAspect=0;image=https://kiosbank.id/media/logo-produk/logo-biller-kiosbank-49.svg;" vertex="1" parent="1">
          <mxGeometry x="719" y="380" width="90" height="90" as="geometry" />
        </mxCell>
        <mxCell id="ei2TfD9Zd-2lZQAxg7M8-10" value="" style="shape=image;verticalLabelPosition=bottom;labelBackgroundColor=default;verticalAlign=top;aspect=fixed;imageAspect=0;image=https://kiosbank.id/media/logo-produk/logo-biller-kiosbank-51.svg;" vertex="1" parent="1">
          <mxGeometry x="719" y="490" width="90" height="90" as="geometry" />
        </mxCell>
        <mxCell id="ei2TfD9Zd-2lZQAxg7M8-11" value="v" style="shape=image;verticalLabelPosition=bottom;labelBackgroundColor=default;verticalAlign=top;aspect=fixed;imageAspect=0;image=https://kiosbank.id/media/logo-produk/logo-biller-kiosbank-52.svg;" vertex="1" parent="1">
          <mxGeometry x="719" y="600" width="90" height="90" as="geometry" />
        </mxCell>
        <mxCell id="ei2TfD9Zd-2lZQAxg7M8-12" value="v" style="shape=image;verticalLabelPosition=bottom;labelBackgroundColor=default;verticalAlign=top;aspect=fixed;imageAspect=0;image=https://kiosbank.id/media/logo-produk/logo-biller-kiosbank-50.svg;" vertex="1" parent="1">
          <mxGeometry x="719" y="720" width="90" height="90" as="geometry" />
        </mxCell>
        <mxCell id="ei2TfD9Zd-2lZQAxg7M8-14" value="" style="shape=flexArrow;endArrow=classic;html=1;fontFamily=Helvetica;fontSize=11;fontColor=rgb(0, 0, 0);align=center;strokeColor=rgb(0, 0, 0);" edge="1" parent="1">
          <mxGeometry width="50" height="50" relative="1" as="geometry">
            <mxPoint x="160" y="334" as="sourcePoint" />
            <mxPoint x="230" y="334" as="targetPoint" />
          </mxGeometry>
        </mxCell>
        <mxCell id="ei2TfD9Zd-2lZQAxg7M8-15" value="" style="shape=flexArrow;endArrow=classic;startArrow=classic;html=1;fontFamily=Helvetica;fontSize=11;fontColor=rgb(0, 0, 0);align=center;strokeColor=rgb(0, 0, 0);entryX=0.185;entryY=0.756;entryDx=0;entryDy=0;entryPerimeter=0;" edge="1" parent="1" target="ei2TfD9Zd-2lZQAxg7M8-2">
          <mxGeometry width="50" height="50" relative="1" as="geometry">
            <mxPoint x="340" y="302.81415730337073" as="sourcePoint" />
            <mxPoint x="430" y="240" as="targetPoint" />
          </mxGeometry>
        </mxCell>
        <mxCell id="ei2TfD9Zd-2lZQAxg7M8-22" value="" style="shape=flexArrow;endArrow=classic;startArrow=classic;html=1;fontFamily=Helvetica;fontSize=11;fontColor=rgb(0, 0, 0);align=center;strokeColor=rgb(0, 0, 0);entryX=0;entryY=0.5;entryDx=0;entryDy=0;" edge="1" parent="1" target="ei2TfD9Zd-2lZQAxg7M8-5">
          <mxGeometry width="50" height="50" relative="1" as="geometry">
            <mxPoint x="520" y="190" as="sourcePoint" />
            <mxPoint x="640" y="112.5799999999999" as="targetPoint" />
          </mxGeometry>
        </mxCell>
        <mxCell id="ei2TfD9Zd-2lZQAxg7M8-23" value="" style="shape=flexArrow;endArrow=classic;startArrow=classic;html=1;fontFamily=Helvetica;fontSize=11;fontColor=rgb(0, 0, 0);align=center;strokeColor=rgb(0, 0, 0);" edge="1" parent="1">
          <mxGeometry width="50" height="50" relative="1" as="geometry">
            <mxPoint x="320" y="380.00415730337085" as="sourcePoint" />
            <mxPoint x="390" y="450" as="targetPoint" />
          </mxGeometry>
        </mxCell>
        <mxCell id="ei2TfD9Zd-2lZQAxg7M8-25" value="" style="shape=flexArrow;endArrow=classic;startArrow=classic;html=1;fontFamily=Helvetica;fontSize=11;fontColor=rgb(0, 0, 0);align=center;strokeColor=rgb(0, 0, 0);exitX=0.75;exitY=0;exitDx=0;exitDy=0;" edge="1" parent="1" source="ei2TfD9Zd-2lZQAxg7M8-7">
          <mxGeometry width="50" height="50" relative="1" as="geometry">
            <mxPoint x="600" y="466" as="sourcePoint" />
            <mxPoint x="710" y="330" as="targetPoint" />
          </mxGeometry>
        </mxCell>
        <mxCell id="ei2TfD9Zd-2lZQAxg7M8-26" value="" style="shape=flexArrow;endArrow=classic;startArrow=classic;html=1;fontFamily=Helvetica;fontSize=11;fontColor=rgb(0, 0, 0);align=center;strokeColor=rgb(0, 0, 0);exitX=1;exitY=0;exitDx=0;exitDy=0;" edge="1" parent="1" source="ei2TfD9Zd-2lZQAxg7M8-7">
          <mxGeometry width="50" height="50" relative="1" as="geometry">
            <mxPoint x="600" y="480" as="sourcePoint" />
            <mxPoint x="710" y="420" as="targetPoint" />
          </mxGeometry>
        </mxCell>
        <mxCell id="ei2TfD9Zd-2lZQAxg7M8-27" value="" style="shape=flexArrow;endArrow=classic;startArrow=classic;html=1;fontFamily=Helvetica;fontSize=11;fontColor=rgb(0, 0, 0);align=center;strokeColor=rgb(0, 0, 0);exitX=1;exitY=0.75;exitDx=0;exitDy=0;" edge="1" parent="1" source="ei2TfD9Zd-2lZQAxg7M8-7">
          <mxGeometry width="50" height="50" relative="1" as="geometry">
            <mxPoint x="600.75" y="553.46" as="sourcePoint" />
            <mxPoint x="710" y="516.54" as="targetPoint" />
          </mxGeometry>
        </mxCell>
        <mxCell id="ei2TfD9Zd-2lZQAxg7M8-28" value="" style="shape=flexArrow;endArrow=classic;startArrow=classic;html=1;fontFamily=Helvetica;fontSize=11;fontColor=rgb(0, 0, 0);align=center;strokeColor=rgb(0, 0, 0);exitX=1;exitY=1;exitDx=0;exitDy=0;" edge="1" parent="1" source="ei2TfD9Zd-2lZQAxg7M8-7">
          <mxGeometry width="50" height="50" relative="1" as="geometry">
            <mxPoint x="609.75" y="610" as="sourcePoint" />
            <mxPoint x="719" y="644.81" as="targetPoint" />
          </mxGeometry>
        </mxCell>
        <mxCell id="ei2TfD9Zd-2lZQAxg7M8-29" value="" style="shape=flexArrow;endArrow=classic;startArrow=classic;html=1;fontFamily=Helvetica;fontSize=11;fontColor=rgb(0, 0, 0);align=center;strokeColor=rgb(0, 0, 0);exitX=0.75;exitY=1;exitDx=0;exitDy=0;" edge="1" parent="1" source="ei2TfD9Zd-2lZQAxg7M8-7">
          <mxGeometry width="50" height="50" relative="1" as="geometry">
            <mxPoint x="600.7499999999995" y="620.0000000000001" as="sourcePoint" />
            <mxPoint x="719" y="774.81" as="targetPoint" />
          </mxGeometry>
        </mxCell>
        <mxCell id="ei2TfD9Zd-2lZQAxg7M8-31" value="End User" style="text;html=1;align=center;verticalAlign=middle;resizable=0;points=[];autosize=1;strokeColor=none;fillColor=none;fontSize=19;" vertex="1" parent="1">
          <mxGeometry x="35" y="395" width="90" height="30" as="geometry" />
        </mxCell>
        <mxCell id="ei2TfD9Zd-2lZQAxg7M8-35" value="" style="shape=image;verticalLabelPosition=bottom;labelBackgroundColor=default;verticalAlign=top;aspect=fixed;imageAspect=0;image=https://png.pngtree.com/png-clipart/20211116/original/pngtree-food-cart-png-image_6941664.png;" vertex="1" parent="1">
          <mxGeometry x="230" y="260" width="110" height="110" as="geometry" />
        </mxCell>
      </root>
    </mxGraphModel>
  </diagram>
</mxfile>
